HIERARCHY
ROOT Hips
{
	OFFSET 0.000000 100.481300 0.000000
	CHANNELS 6 Xposition Yposition Zposition Xrotation Yrotation Zrotation 
	JOINT Spine
	{
		OFFSET -0.279200 12.230698 -2.892100
		CHANNELS 3 Xrotation Yrotation Zrotation
		JOINT Spine1
		{
			OFFSET -0.232667 10.192268 -1.242267
			CHANNELS 3 Xrotation Yrotation Zrotation
			JOINT Spine1_split
			{
				OFFSET -0.232667 10.192268 -1.242267
				CHANNELS 3 Xrotation Yrotation Zrotation
				JOINT Spine2
				{
					OFFSET -0.232667 10.192268 -1.242267
					CHANNELS 3 Xrotation Yrotation Zrotation
					JOINT Neck
					{
						OFFSET -0.418800 17.814194 8.416900
						CHANNELS 3 Xrotation Yrotation Zrotation
						JOINT Head
						{
							OFFSET 0.000000 7.031097 3.806800
							CHANNELS 3 Xrotation Yrotation Zrotation
							JOINT HeadTop_End
							{
								OFFSET 0.000000 24.646606 12.978600
								CHANNELS 3 Xrotation Yrotation Zrotation
								End Site
								{
									OFFSET 0.000000 0.000000 0.000000
								}
							}
						}
					}
					JOINT LeftShoulder
					{
						OFFSET 8.476499 7.247704 -3.868750
						CHANNELS 3 Xrotation Yrotation Zrotation
						JOINT LeftShoulder_split
						{
							OFFSET 8.476499 7.247704 -3.868750
							CHANNELS 3 Xrotation Yrotation Zrotation
							JOINT LeftArm
							{
								OFFSET 9.308998 -2.777710 0.208600
								CHANNELS 3 Xrotation Yrotation Zrotation
								JOINT LeftForeArm
								{
									OFFSET 29.972298 0.000000 0.000000
									CHANNELS 3 Xrotation Yrotation Zrotation
									JOINT LeftHand
									{
										OFFSET 26.026505 0.000000 0.000000
										CHANNELS 3 Xrotation Yrotation Zrotation
										JOINT LeftHandThumb1
										{
											OFFSET 12.240501 -7.147949 9.207150
											CHANNELS 3 Xrotation Yrotation Zrotation
											JOINT LeftHandThumb2
											{
												OFFSET 4.138618 -2.389435 2.389433
												CHANNELS 3 Xrotation Yrotation Zrotation
												JOINT LeftHandThumb3
												{
													OFFSET 2.726913 -1.574387 1.574386
													CHANNELS 3 Xrotation Yrotation Zrotation
													JOINT LeftHandThumb4
													{
														OFFSET 3.941010 -2.275345 2.275342
														CHANNELS 3 Xrotation Yrotation Zrotation
														End Site
														{
															OFFSET 0.000000 0.000000 0.000000
														}
													}
												}
											}
										}
										JOINT LeftHandIndex1
										{
											OFFSET 24.424698 -1.985611 5.953459
											CHANNELS 3 Xrotation Yrotation Zrotation
											JOINT LeftHandIndex2
											{
												OFFSET 6.426697 0.000000 0.000000
												CHANNELS 3 Xrotation Yrotation Zrotation
												JOINT LeftHandIndex3
												{
													OFFSET 5.337898 0.000000 0.000000
													CHANNELS 3 Xrotation Yrotation Zrotation
													JOINT LeftHandIndex4
													{
														OFFSET 4.409401 0.000000 0.000000
														CHANNELS 3 Xrotation Yrotation Zrotation
														End Site
														{
															OFFSET 0.000000 0.000000 0.000000
														}
													}
												}
											}
										}
										JOINT LeftHandMiddle1
										{
											OFFSET 23.810104 0.000000 0.000000
											CHANNELS 3 Xrotation Yrotation Zrotation
											JOINT LeftHandMiddle2
											{
												OFFSET 7.176498 0.000000 0.000000
												CHANNELS 3 Xrotation Yrotation Zrotation
												JOINT LeftHandMiddle3
												{
													OFFSET 6.774902 0.000000 0.000000
													CHANNELS 3 Xrotation Yrotation Zrotation
													JOINT LeftHandMiddle4
													{
														OFFSET 5.403328 0.000000 0.000000
														CHANNELS 3 Xrotation Yrotation Zrotation
														End Site
														{
															OFFSET 0.000000 0.000000 0.000000
														}
													}
												}
											}
										}
										JOINT LeftHandRing1
										{
											OFFSET 22.908401 -0.839279 -6.020567
											CHANNELS 3 Xrotation Yrotation Zrotation
											JOINT LeftHandRing2
											{
												OFFSET 6.337502 0.000000 0.000000
												CHANNELS 3 Xrotation Yrotation Zrotation
												JOINT LeftHandRing3
												{
													OFFSET 5.779297 0.000000 0.000000
													CHANNELS 3 Xrotation Yrotation Zrotation
													JOINT LeftHandRing4
													{
														OFFSET 4.965698 0.000000 0.000000
														CHANNELS 3 Xrotation Yrotation Zrotation
														End Site
														{
															OFFSET 0.000000 0.000000 0.000000
														}
													}
												}
											}
										}
										JOINT LeftHandPinky1
										{
											OFFSET 20.037003 -1.530319 -10.950146
											CHANNELS 3 Xrotation Yrotation Zrotation
											JOINT LeftHandPinky2
											{
												OFFSET 5.254700 0.000000 0.000000
												CHANNELS 3 Xrotation Yrotation Zrotation
												JOINT LeftHandPinky3
												{
													OFFSET 4.810204 0.000000 0.000000
													CHANNELS 3 Xrotation Yrotation Zrotation
													JOINT LeftHandPinky4
													{
														OFFSET 3.647202 0.000000 0.000000
														CHANNELS 3 Xrotation Yrotation Zrotation
														End Site
														{
															OFFSET 0.000000 0.000000 0.000000
														}
													}
												}
											}
										}
									}
								}
							}
						}
					}
					JOINT RightShoulder
					{
						OFFSET -7.570500 7.247704 -3.868750
						CHANNELS 3 Xrotation Yrotation Zrotation
						JOINT RightShoulder_split
						{
							OFFSET -7.570500 7.247704 -3.868750
							CHANNELS 3 Xrotation Yrotation Zrotation
							JOINT RightArm
							{
								OFFSET -9.308998 -2.777710 0.208500
								CHANNELS 3 Xrotation Yrotation Zrotation
								JOINT RightForeArm
								{
									OFFSET -29.972300 0.000000 0.000000
									CHANNELS 3 Xrotation Yrotation Zrotation
									JOINT RightHand
									{
										OFFSET -26.026505 0.000000 0.000000
										CHANNELS 3 Xrotation Yrotation Zrotation
										JOINT RightHandThumb1
										{
											OFFSET -12.240601 -7.148026 9.207092
											CHANNELS 3 Xrotation Yrotation Zrotation
											JOINT RightHandThumb2
											{
												OFFSET -4.138618 -2.389435 2.389433
												CHANNELS 3 Xrotation Yrotation Zrotation
												JOINT RightHandThumb3
												{
													OFFSET -2.726974 -1.574417 1.574421
													CHANNELS 3 Xrotation Yrotation Zrotation
													JOINT RightHandThumb4
													{
														OFFSET -3.941010 -2.275345 2.275343
														CHANNELS 3 Xrotation Yrotation Zrotation
														End Site
														{
															OFFSET 0.000000 0.000000 0.000000
														}
													}
												}
											}
										}
										JOINT RightHandIndex1
										{
											OFFSET -24.424698 -1.985657 5.953444
											CHANNELS 3 Xrotation Yrotation Zrotation
											JOINT RightHandIndex2
											{
												OFFSET -6.426697 0.000000 0.000000
												CHANNELS 3 Xrotation Yrotation Zrotation
												JOINT RightHandIndex3
												{
													OFFSET -5.337898 0.000000 0.000000
													CHANNELS 3 Xrotation Yrotation Zrotation
													JOINT RightHandIndex4
													{
														OFFSET -4.409401 0.000000 0.000000
														CHANNELS 3 Xrotation Yrotation Zrotation
														End Site
														{
															OFFSET 0.000000 0.000000 0.000000
														}
													}
												}
											}
										}
										JOINT RightHandMiddle1
										{
											OFFSET -23.810097 0.000000 0.000000
											CHANNELS 3 Xrotation Yrotation Zrotation
											JOINT RightHandMiddle2
											{
												OFFSET -7.176498 0.000000 0.000000
												CHANNELS 3 Xrotation Yrotation Zrotation
												JOINT RightHandMiddle3
												{
													OFFSET -6.774902 0.000000 0.000000
													CHANNELS 3 Xrotation Yrotation Zrotation
													JOINT RightHandMiddle4
													{
														OFFSET -5.403328 0.000000 0.000000
														CHANNELS 3 Xrotation Yrotation Zrotation
														End Site
														{
															OFFSET 0.000000 0.000000 0.000000
														}
													}
												}
											}
										}
										JOINT RightHandRing1
										{
											OFFSET -22.908302 -0.839325 -6.020576
											CHANNELS 3 Xrotation Yrotation Zrotation
											JOINT RightHandRing2
											{
												OFFSET -6.337502 0.000000 0.000000
												CHANNELS 3 Xrotation Yrotation Zrotation
												JOINT RightHandRing3
												{
													OFFSET -5.779297 0.000000 0.000000
													CHANNELS 3 Xrotation Yrotation Zrotation
													JOINT RightHandRing4
													{
														OFFSET -4.965698 0.000000 0.000000
														CHANNELS 3 Xrotation Yrotation Zrotation
														End Site
														{
															OFFSET 0.000000 0.000000 0.000000
														}
													}
												}
											}
										}
										JOINT RightHandPinky1
										{
											OFFSET -20.037003 -1.530334 -10.950259
											CHANNELS 3 Xrotation Yrotation Zrotation
											JOINT RightHandPinky2
											{
												OFFSET -5.254700 0.000000 0.000000
												CHANNELS 3 Xrotation Yrotation Zrotation
												JOINT RightHandPinky3
												{
													OFFSET -4.810204 0.000000 0.000000
													CHANNELS 3 Xrotation Yrotation Zrotation
													JOINT RightHandPinky4
													{
														OFFSET -3.647202 0.000000 0.000000
														CHANNELS 3 Xrotation Yrotation Zrotation
														End Site
														{
															OFFSET 0.000000 0.000000 0.000000
														}
													}
												}
											}
										}
									}
								}
							}
						}
					}
				}
			}
		}
	}
	JOINT LeftUpLeg
	{
		OFFSET 15.427100 -6.655098 0.678600
		CHANNELS 3 Xrotation Yrotation Zrotation
		JOINT LeftLeg
		{
			OFFSET 4.081073 -39.591068 13.024000
			CHANNELS 3 Xrotation Yrotation Zrotation
			JOINT LeftFoot
			{
				OFFSET -4.081074 -37.707932 -15.979700
				CHANNELS 3 Xrotation Yrotation Zrotation
				JOINT LeftToeBase
				{
					OFFSET 5.346399 -15.068900 20.645000
					CHANNELS 3 Xrotation Yrotation Zrotation
					JOINT LeftToe_End
					{
						OFFSET 2.754700 0.931300 11.300900
						CHANNELS 3 Xrotation Yrotation Zrotation
						End Site
						{
							OFFSET 0.000000 0.000000 0.000000
						}
					}
				}
			}
		}
	}
	JOINT RightUpLeg
	{
		OFFSET -15.569500 -6.655098 0.678600
		CHANNELS 3 Xrotation Yrotation Zrotation
		JOINT RightLeg
		{
			OFFSET -4.081825 -39.591045 13.023800
			CHANNELS 3 Xrotation Yrotation Zrotation
			JOINT RightFoot
			{
				OFFSET 4.081824 -37.707954 -15.979600
				CHANNELS 3 Xrotation Yrotation Zrotation
				JOINT RightToeBase
				{
					OFFSET -5.346400 -15.068900 20.645000
					CHANNELS 3 Xrotation Yrotation Zrotation
					JOINT RightToe_End
					{
						OFFSET -2.754700 0.931300 11.300900
						CHANNELS 3 Xrotation Yrotation Zrotation
						End Site
						{
							OFFSET 0.000000 0.000000 0.000000
						}
					}
				}
			}
		}
	}
}
MOTION
Frames: 5
Frame Time: 0.016667
0.339774 89.106499 -2.167839 5.049065 -15.727561 0.531819 23.120703 4.302377 -0.678205 3.699123 1.240175 -0.846329 0.000000 0.000000 0.000000 3.692593 1.312476 -0.857370 -12.698243 1.123397 2.281903 -14.088310 7.829664 -3.298854 0.000000 0.000000 -0.000000 7.811592 -20.950973 9.744739 0.000000 0.000000 0.000000 -33.643019 -3.124191 -85.445639 0.000027 -42.998305 -4.823150 -17.287103 -10.866532 -12.599018 -7.471930 1.860696 -7.166912 30.987001 27.310539 -4.510883 83.254637 13.297883 -10.940239 0.000003 -0.000001 0.000000 -4.713129 11.342526 -75.220955 -0.816402 3.074000 -46.874629 -4.740622 0.379140 -78.699455 0.000001 -0.000000 -0.000000 1.616666 16.582654 -84.688827 0.018018 0.022057 -72.884853 -1.302634 -0.091461 -19.943258 -0.000003 -0.000002 0.000003 -6.443155 23.132652 -76.210165 0.013345 0.983455 -51.003594 6.785078 8.429316 -40.138730 0.000001 0.000002 0.000001 -17.098986 22.128937 -43.123185 0.019739 0.027038 -78.662872 0.004939 0.007731 -26.297166 0.000000 0.000000 -0.000000 13.917692 27.239899 -23.496414 0.000000 0.000000 0.000000 -43.128557 -5.411288 84.812235 0.000008 58.104597 5.767270 -18.206861 16.096516 8.636262 9.347164 2.810568 -11.364512 16.169110 -43.266001 15.843573 32.491825 -44.566762 5.661150 0.000003 -0.000000 -0.000001 17.076783 -0.396527 31.924342 -0.204421 -0.284205 112.811550 1.553140 -1.173019 33.344553 0.000000 0.000000 -0.000002 9.205469 -5.035899 102.738100 0.014982 -0.019193 61.018499 1.871343 0.346191 31.443787 -0.000002 0.000000 0.000000 5.569146 -8.935234 107.329094 0.547989 -0.005796 41.263700 0.739132 0.837849 51.122245 0.000001 -0.000001 -0.000002 6.511224 -17.148240 98.228017 0.007413 -0.015748 43.845740 0.011241 -0.024768 57.754556 0.000001 0.000001 -0.000001 -34.246749 2.426664 11.424036 28.596838 3.878036 1.061784 1.723568 0.892658 -7.721089 -0.359403 -1.379839 -0.238586 0.000000 -0.000000 0.000000 -11.236950 -10.564237 -14.694517 27.831177 -4.817145 2.171062 -18.432232 -4.043707 13.004211 -1.225842 1.216077 -0.217466 0.000000 0.000001 -0.000000 
0.376725 89.090515 -2.184624 5.033796 -15.983968 0.557161 23.120120 4.336834 -0.680168 3.697001 1.270045 -0.848466 0.000000 0.000000 0.000000 3.690623 1.342608 -0.860966 -12.863703 1.675240 2.090668 -13.987699 8.414726 -3.310302 -0.000000 -0.000000 0.000000 7.686574 -20.788213 9.327154 0.000000 0.000000 0.000000 -33.679635 -3.519081 -85.304685 0.000001 -43.357276 -4.333597 -17.231587 -10.328819 -12.796317 -7.471932 1.860698 -7.166911 30.987004 27.310539 -4.510889 83.254637 13.297887 -10.940242 0.000001 -0.000001 -0.000001 -4.711727 11.345192 -75.237484 -0.816404 3.074000 -46.874625 -4.740624 0.379136 -78.699455 -0.000001 -0.000001 0.000002 1.623068 16.576330 -84.598648 0.017986 0.022034 -72.792632 -1.301581 -0.093717 -19.851023 -0.000001 0.000002 -0.000001 -6.615175 23.030153 -76.196375 0.013389 0.979934 -50.778662 6.748273 8.455644 -39.913614 -0.000000 -0.000000 0.000001 -17.265745 21.699651 -43.572113 0.019304 0.026942 -77.688778 0.004956 0.007790 -26.450413 0.000002 0.000001 -0.000001 13.325439 26.974543 -22.684433 0.000000 0.000000 0.000000 -43.270679 -4.158115 84.402697 0.000018 57.768067 5.603164 -18.560291 15.926147 8.602515 9.347164 2.810566 -11.364511 16.169107 -43.266001 15.843575 32.491818 -44.566759 5.661153 0.000000 -0.000001 -0.000001 17.076783 -0.396528 31.924345 -0.204421 -0.284205 112.811550 1.553140 -1.173018 33.344553 0.000000 0.000000 -0.000002 9.205469 -5.035900 102.738107 0.014982 -0.019194 61.018492 1.871343 0.346191 31.443787 -0.000001 -0.000001 0.000005 5.569148 -8.935236 107.329094 0.547985 -0.005796 41.263693 0.739132 0.837851 51.122245 -0.000001 -0.000001 0.000000 6.511225 -17.148245 98.228017 0.007412 -0.015751 43.845744 0.011241 -0.024765 57.754563 -0.000000 -0.000002 -0.000002 -34.166963 2.394632 11.516779 28.671024 4.094912 1.024743 1.644350 0.922512 -7.798465 -0.335575 -1.319979 -0.249762 0.000000 0.000000 -0.000000 -11.429271 -10.602672 -14.714364 27.890996 -4.538616 2.102948 -18.382122 -3.995001 12.921979 -1.216019 1.216404 -0.216166 0.000000 -0.000002 -0.000000 
0.420303 89.057434 -2.216287 5.038443 -16.308309 0.598680 23.127280 4.387483 -0.681143 3.678778 1.304126 -0.850525 0.000000 0.000000 0.000000 3.672131 1.375555 -0.864477 -13.000398 2.224551 1.887412 -13.930415 9.001491 -3.326596 0.000000 -0.000000 -0.000000 7.549172 -20.634828 8.867795 0.000000 0.000000 0.000000 -33.753989 -3.967026 -84.994034 0.000010 -43.669637 -3.983671 -17.295448 -9.823967 -12.930746 -7.471928 1.860696 -7.166914 30.987008 27.310535 -4.510887 83.254631 13.297887 -10.940243 0.000000 -0.000001 0.000000 -4.710317 11.347914 -75.254382 -0.816399 3.074001 -46.874622 -4.740625 0.379140 -78.699448 -0.000002 0.000001 -0.000000 1.629762 16.569757 -84.504876 0.017954 0.022003 -72.696640 -1.300439 -0.096046 -19.755089 -0.000002 -0.000002 0.000001 -6.793079 22.924044 -76.193403 0.013294 0.979873 -50.545220 6.709874 8.482879 -39.679298 0.000001 -0.000002 0.000002 -17.423652 21.254430 -44.081208 0.018847 0.026833 -76.662692 0.004975 0.007840 -26.604316 0.000002 0.000000 -0.000000 12.767475 26.735602 -21.908218 0.000000 0.000000 0.000000 -43.497752 -2.834411 83.951003 0.000036 57.335709 5.420061 -18.961478 15.774158 8.544120 9.347164 2.810566 -11.364509 16.169109 -43.265997 15.843570 32.491811 -44.566762 5.661148 -0.000001 -0.000000 -0.000001 17.076786 -0.396527 31.924345 -0.204421 -0.284205 112.811557 1.553141 -1.173019 33.344550 0.000000 -0.000001 -0.000002 9.205471 -5.035900 102.738100 0.014982 -0.019194 61.018499 1.871342 0.346192 31.443787 -0.000000 -0.000001 -0.000000 5.569149 -8.935235 107.329087 0.547987 -0.005795 41.263700 0.739132 0.837852 51.122245 -0.000000 0.000000 0.000002 6.511226 -17.148242 98.228017 0.007410 -0.015747 43.845740 0.011242 -0.024765 57.754550 -0.000001 -0.000001 0.000000 -34.131579 2.426316 11.624180 28.786471 4.310491 1.016459 1.548113 0.955558 -7.890051 -0.283405 -1.290715 -0.296843 0.000000 0.000000 -0.000000 -11.679717 -10.529887 -14.771425 28.002019 -4.269043 2.106625 -18.331697 -3.940167 12.812762 -1.219860 1.216313 -0.216683 0.000000 -0.000000 0.000000 
0.467571 89.016846 -2.255187 5.043641 -16.675456 0.649131 23.132167 4.436491 -0.685289 3.668316 1.344950 -0.853238 0.000000 0.000000 0.000000 3.661472 1.415975 -0.869073 -13.136370 2.786674 1.677591 -13.885458 9.606063 -3.354276 -0.000000 -0.000000 -0.000000 7.406742 -20.484205 8.380337 0.000000 0.000000 0.000000 -33.834445 -4.568835 -84.564114 0.000003 -43.951752 -3.708002 -17.514606 -9.377997 -12.968265 -7.471930 1.860696 -7.166913 30.987001 27.310539 -4.510882 83.254631 13.297892 -10.940243 0.000000 -0.000001 0.000000 -4.708830 11.350793 -75.272175 -0.816399 3.073999 -46.874622 -4.740621 0.379140 -78.699448 -0.000006 0.000001 -0.000002 1.633149 16.563868 -84.406351 0.017906 0.022021 -72.597179 -1.299207 -0.098474 -19.655700 0.000001 -0.000002 0.000003 -6.976368 22.814632 -76.199557 0.013207 0.979805 -50.303370 6.669951 8.510947 -39.436464 0.000001 -0.000000 -0.000002 -17.571340 20.794156 -44.643383 0.018383 0.026715 -75.590052 0.005009 0.007897 -26.758670 0.000002 0.000000 -0.000000 12.246191 26.525448 -21.177148 0.000000 0.000000 0.000000 -43.721349 -1.487022 83.438636 0.000024 56.901719 5.282917 -19.419546 15.653907 8.438903 9.347167 2.810565 -11.364515 16.169110 -43.266001 15.843575 32.491825 -44.566769 5.661153 0.000000 0.000000 -0.000000 17.076783 -0.396528 31.924338 -0.204420 -0.284206 112.811557 1.553140 -1.173018 33.344553 -0.000000 0.000000 0.000001 9.205470 -5.035899 102.738100 0.014982 -0.019193 61.018499 1.871344 0.346191 31.443787 -0.000001 -0.000001 0.000001 5.569148 -8.935236 107.329087 0.547984 -0.005794 41.263700 0.739132 0.837852 51.122248 -0.000000 -0.000000 -0.000000 6.511226 -17.148243 98.228017 0.007410 -0.015749 43.845744 0.011242 -0.024769 57.754556 -0.000001 0.000001 0.000000 -34.073341 2.392780 11.762437 28.918375 4.607269 0.960353 1.440671 0.994379 -8.001611 -0.275271 -1.244940 -0.295517 0.000000 0.000001 0.000000 -12.015065 -10.578581 -14.824821 28.138129 -3.855192 2.051265 -18.276350 -3.865469 12.665271 -1.204931 1.211260 -0.209834 0.000000 -0.000001 0.000000 
0.517607 88.968765 -2.303825 5.047544 -17.090860 0.712365 23.140496 4.487365 -0.702913 3.663201 1.389915 -0.859503 0.000000 0.000000 0.000000 3.656714 1.460838 -0.877335 -13.267157 3.372222 1.453683 -13.847330 10.245874 -3.399599 -0.000001 -0.000000 -0.000000 7.261354 -20.335579 7.874383 0.000000 0.000000 0.000000 -33.900749 -5.314790 -84.004155 0.000008 -44.245286 -3.519546 -17.917167 -8.969241 -12.895534 -7.471930 1.860694 -7.166914 30.987001 27.310535 -4.510884 83.254624 13.297887 -10.940244 0.000003 -0.000000 0.000001 -4.707249 11.353798 -75.290890 -0.816402 3.073998 -46.874625 -4.740623 0.379142 -78.699448 -0.000003 0.000000 -0.000002 1.636693 16.557796 -84.304677 0.017877 0.021999 -72.494494 -1.299039 -0.100844 -19.553016 0.000002 0.000001 0.000003 -7.164559 22.702229 -76.213081 0.013125 0.979738 -50.053689 6.628609 8.539727 -39.185748 -0.000000 0.000001 -0.000000 -17.707563 20.319777 -45.251509 0.017908 0.026579 -74.476191 0.005024 0.007945 -26.913433 -0.000000 0.000002 -0.000000 11.748298 26.342281 -20.499930 0.000000 0.000000 0.000000 -43.948453 -0.105499 82.878738 0.000022 56.461151 5.193609 -19.935538 15.545155 8.282582 9.347168 2.810566 -11.364508 16.169107 -43.266007 15.843578 32.491825 -44.566762 5.661152 -0.000002 -0.000001 -0.000000 17.076786 -0.396527 31.924338 -0.204420 -0.284205 112.811550 1.553141 -1.173018 33.344553 -0.000000 -0.000000 0.000000 9.205474 -5.035898 102.738100 0.014980 -0.019193 61.018499 1.871342 0.346189 31.443783 -0.000001 -0.000003 -0.000002 5.569150 -8.935236 107.329087 0.547987 -0.005795 41.263700 0.739132 0.837852 51.122245 -0.000002 -0.000001 -0.000002 6.511227 -17.148242 98.228017 0.007412 -0.015748 43.845740 0.011241 -0.024767 57.754563 -0.000001 -0.000001 -0.000001 -34.012997 2.386510 11.915134 29.064917 4.916474 0.902417 1.325146 1.038473 -8.122084 -0.254546 -1.317425 -0.333239 0.000000 -0.000000 -0.000000 -12.403463 -10.638740 -14.890924 28.303822 -3.380575 1.991324 -18.216388 -3.777926 12.490982 -1.212432 1.232836 -0.232081 0.000000 0.000003 0.000000 
